<?xml version="1.0" encoding="UTF-8"?>
<svg version="1.1" viewBox="0 0 2048 1152" width="3840" height="2160" xmlns="http://www.w3.org/2000/svg">
<path transform="translate(628,238)" d="m0 0h145l511 1 129 1-3 39-19 220-18 206-10 116-15 173-4 47-8 3-159 46-131 38-21 6-10-2-75-21-89-25-146-41-10-3-2-5-26-318-23-281-16-195z" fill="#E9CA30"/>
<path transform="translate(1023,315)" d="m0 0h253l71 1-3 38-4 44-22 254-13 150-13 148-2 24-2 6-44 13-25 7-24 7-37 11-52 15-27 8-25 7-28 8h-3z" fill="#FDDD23"/>
<path transform="translate(1053,403)" d="m0 0h236l-1 11-14 83h-131v156h130v20l-8 158-5 99-2 36-50 12-57 13-77 18-18 4h-3v-97l9-4 56-19 43-15 29-10h2v-12l7-117-24 3-63 9-47 7-12 1z" fill="#fff"/>
<path transform="translate(904,403)" d="m0 0h85v610l-11-2-103-27-82-21-34-9-1-1v-148l17 2 61 10 1 1v66l14 2 52 10z" fill="#fff"/>
<path transform="translate(1014,22)" d="m0 0h18l21 3 20 5 1 3v28l-5-1-16-6-21-5h-13l-9 4-5 6-3 6-1 6 16 4 24 7 13 5 13 7 7 9 3 8 1 4v15l-3 11-6 10-10 9-16 7-16 3h-16l-23-3-20-4-2-5-3-26v-5l6 2 16 7 15 5 10 2h15l8-3 4-2 2-4 4-10-1-3-19-6-22-6-17-8-10-8-4-5-3-10-1-14 3-13 6-10 9-8 8-5 15-5z"/>
<path transform="translate(1414,58)" d="m0 0 8 1 10 5 8 9 6 12 3 13v24l-4 18-7 13-5 6-10 6-10 3-9 1h-26l-1 38h-33l-1-3v-143l2-2 16 2h29zm-35 26-2 2v59l1 1 14-1 11-3 7-4 3-7 1-7v-14l-2-24-1-2z"/>
<path transform="translate(877,57)" d="m0 0h32l14 4 8 4 9 8 3 9 2 18v55l-1 14-28-4h-13l-8 3-6 1h-19l-10-3-9-7-5-10-1-4v-19l4-8 6-7 15-8 21-5 16-2h7l-2-5-5-4-10-4-7-1h-9l-30 3 1-8 6-16 4-2zm32 59-25 4-3 2-2 16v7l4 1h26l2-23v-6z"/>
<path transform="translate(649,57)" d="m0 0h27l13 3 10 5 6 5 5 8 2 11 2 21v23l-1 34-17-1-11-1h-17l-20 5h-12l-11-6-8-9-3-7-1-5v-13l3-10 5-8 7-5 13-5 26-5 15-2-1-6-5-2-12-4h-25l-17 1v-17l1-7zm25 60-23 3-1 2-2 17v7h19l11-1 2-19v-9z"/>
<path transform="translate(527,24)" d="m0 0h68l1 60v15l-1 22-4 22-4 8-7 8-14 7-16 3-15 1h-23l-1-1-2-19v-7l33-2 12-3 3-12 2-17v-29l-2-31-29 1-2-1z" fill="#010101"/>
<path transform="translate(728,57)" d="m0 0 28 5 5 2 8 20 12 34 3 6 2-3 16-52 3-9 16-1h17l-1 6-12 36-12 33-8 20-6 16-3 1-28-6-4-2-9-20-11-30-10-31-6-21z"/>
<path transform="translate(1471,29)" d="m0 0h31l1 20v10h31l1 1 1 22-1 1h-32v38l2 13 2 9 15 2 13 1 4 1-1 9-5 8-5 4-8 2-16-1-26-6-4-2-2-12-1-20-1-35-3-6-12-17-1-3 13-12 3-2z"/>
<path transform="translate(1141,56)" d="m0 0h13l14 3 12 6 2 4 2 16v7l-9-2-15-6-10-2h-9l-9 3-6 9-4 13v14l3 10 5 8 5 4 5 2h13l18-6 14-4-1 9-4 19-4 4-18 4h-17l-16-4-10-4-11-7-8-9-5-8-3-8-1-6v-23l4-13 7-11 8-8 11-7 13-5z" fill="#010101"/>
<path transform="translate(1200,57)" d="m0 0 10 2 26 7h7l13-5 11-4h3l1 15v18l-32 2-5 1-1 73-1 2h-32l-1-21v-66z"/>
<path transform="translate(1286,59)" d="m0 0h30l1 2v106l-1 1h-30l-1-5v-103z"/>
<path transform="translate(1283,18)" d="m0 0h36l1 26-3 1h-34l-1-3v-23z" fill="#020202"/>
</svg>
